<svg width="10" height="4" viewBox="0 0 10 4" fill="none" xmlns="http://www.w3.org/2000/svg">
<path d="M1.90182 3.67162C1.69392 3.87628 1.35535 3.87776 1.14559 3.67492C0.935828 3.47207 0.934317 3.14173 1.14221 2.93707L2.41047 1.68856C2.88813 1.21832 3.27853 0.833991 3.62637 0.56143C3.98809 0.278002 4.35524 0.0728313 4.79594 0.0180237C4.98918 -0.0060079 5.18474 -0.00600786 5.37797 0.0180236C5.81868 0.0728313 6.18583 0.278002 6.54755 0.561431C6.89539 0.83399 7.28578 1.21831 7.76344 1.68855L9.03171 2.93707C9.2396 3.14173 9.23809 3.47207 9.02833 3.67492C8.81857 3.87776 8.48 3.87628 8.2721 3.67162L7.02629 2.44521C6.52068 1.94748 6.17272 1.60605 5.87787 1.37502C5.59147 1.15061 5.40751 1.07362 5.24275 1.05313C5.1393 1.04026 5.03462 1.04026 4.93117 1.05313C4.76641 1.07362 4.58245 1.15061 4.29605 1.37502C4.0012 1.60605 3.65324 1.94748 3.14763 2.44521L1.90182 3.67162Z" fill="#434B5B"/>
</svg>
