<svg width="11" height="10" viewBox="0 0 11 10" fill="none" xmlns="http://www.w3.org/2000/svg">
<path fill-rule="evenodd" clip-rule="evenodd" d="M0.888386 8.56126C0.55934 8.8903 0.55934 9.42379 0.888386 9.75284C1.21743 10.0819 1.75092 10.0819 2.07997 9.75284L5.82085 6.01195L9.56206 9.75316C9.8911 10.0822 10.4246 10.0822 10.7536 9.75316C11.0827 9.42411 11.0827 8.89062 10.7536 8.56157L7.01244 4.82037L10.3944 1.43837C10.7235 1.10932 10.7235 0.575831 10.3944 0.246785C10.0654 -0.0822614 9.53191 -0.0822618 9.20286 0.246784L5.82085 3.62879L2.43917 0.247101C2.11012 -0.0819449 1.57663 -0.0819447 1.24759 0.247102C0.918539 0.576148 0.918539 1.10964 1.24758 1.43868L4.62927 4.82037L0.888386 8.56126Z" fill="white"/>
<path fill-rule="evenodd" clip-rule="evenodd" d="M0.888386 8.56126C0.55934 8.8903 0.55934 9.42379 0.888386 9.75284C1.21743 10.0819 1.75092 10.0819 2.07997 9.75284L5.82085 6.01195L9.56206 9.75316C9.8911 10.0822 10.4246 10.0822 10.7536 9.75316C11.0827 9.42411 11.0827 8.89062 10.7536 8.56157L7.01244 4.82037L10.3944 1.43837C10.7235 1.10932 10.7235 0.575831 10.3944 0.246785C10.0654 -0.0822614 9.53191 -0.0822618 9.20286 0.246784L5.82085 3.62879L2.43917 0.247101C2.11012 -0.0819449 1.57663 -0.0819447 1.24759 0.247102C0.918539 0.576148 0.918539 1.10964 1.24758 1.43868L4.62927 4.82037L0.888386 8.56126Z" fill="#434B5B"/>
</svg>
