<svg width="23" height="20" viewBox="0 0 23 20" fill="none" xmlns="http://www.w3.org/2000/svg">
<path d="M4.92893 5.92893L5.45926 5.3986L4.92893 5.92893ZM3 4L2.46967 4.53033L3 4ZM11 18.25C10.5858 18.25 10.25 18.5858 10.25 19C10.25 19.4142 10.5858 19.75 11 19.75V18.25ZM21.0451 16.9389L20.4383 16.4981V16.4981L21.0451 16.9389ZM19.9389 18.0451L19.4981 17.4383V17.4383L19.9389 18.0451ZM19.9389 1.95491L20.3798 1.34815V1.34815L19.9389 1.95491ZM21.0451 3.06107L20.4383 3.50191V3.50191L21.0451 3.06107ZM4.06107 1.95491L3.62023 1.34815L3.62023 1.34815L4.06107 1.95491ZM1.25 10C1.25 10.4142 1.58579 10.75 2 10.75C2.41421 10.75 2.75 10.4142 2.75 10H1.25ZM2.95491 3.06107L2.34815 2.62023L2.34815 2.62023L2.95491 3.06107ZM1 16.25C0.585786 16.25 0.25 16.5858 0.25 17C0.25 17.4142 0.585786 17.75 1 17.75V16.25ZM7 17.75C7.41421 17.75 7.75 17.4142 7.75 17C7.75 16.5858 7.41421 16.25 7 16.25V17.75ZM1 13.25C0.585786 13.25 0.25 13.5858 0.25 14C0.25 14.4142 0.585786 14.75 1 14.75V13.25ZM4 14.75C4.41421 14.75 4.75 14.4142 4.75 14C4.75 13.5858 4.41421 13.25 4 13.25V14.75ZM2.62103 3.62103L1.94538 3.29546L2.62103 3.62103ZM5.45926 5.3986L3.65165 3.59099L2.59099 4.65165L4.3986 6.45926L5.45926 5.3986ZM20.3483 3.59099L18.5407 5.3986L19.6014 6.45926L21.409 4.65165L20.3483 3.59099ZM4.3986 6.45926C6.05028 8.11094 7.34126 9.40417 8.48288 10.2752C9.64181 11.1594 10.7345 11.6789 12 11.6789V10.1789C11.1944 10.1789 10.4183 9.8651 9.39275 9.08267C8.34994 8.28703 7.14092 7.08026 5.45926 5.3986L4.3986 6.45926ZM18.5407 5.3986C16.8591 7.08026 15.6501 8.28703 14.6072 9.08267C13.5817 9.8651 12.8056 10.1789 12 10.1789V11.6789C13.2655 11.6789 14.3582 11.1594 15.5171 10.2752C16.6587 9.40417 17.9497 8.11094 19.6014 6.45926L18.5407 5.3986ZM5.45926 5.3986L3.53033 3.46967L2.46967 4.53033L4.3986 6.45926L5.45926 5.3986ZM20.4697 3.46967L18.5407 5.3986L19.6014 6.45926L21.5303 4.53033L20.4697 3.46967ZM11 1.75H13V0.25H11V1.75ZM13 18.25H11V19.75H13V18.25ZM21.25 10C21.25 11.8916 21.249 13.25 21.135 14.302C21.0225 15.3399 20.8074 15.9901 20.4383 16.4981L21.6518 17.3798C22.2377 16.5734 22.5 15.6291 22.6263 14.4635C22.751 13.312 22.75 11.8582 22.75 10H21.25ZM13 19.75C14.8582 19.75 16.312 19.751 17.4635 19.6263C18.6291 19.5 19.5734 19.2377 20.3798 18.6518L19.4981 17.4383C18.9901 17.8074 18.3399 18.0225 17.302 18.135C16.25 18.249 14.8916 18.25 13 18.25V19.75ZM20.4383 16.4981C20.1762 16.8589 19.8589 17.1762 19.4981 17.4383L20.3798 18.6518C20.8679 18.2972 21.2972 17.8679 21.6518 17.3798L20.4383 16.4981ZM13 1.75C14.8916 1.75 16.25 1.75103 17.302 1.865C18.3399 1.97745 18.9901 2.19259 19.4981 2.56168L20.3798 1.34815C19.5734 0.762324 18.6291 0.500006 17.4635 0.373728C16.312 0.248971 14.8582 0.25 13 0.25V1.75ZM19.4981 2.56168C19.8589 2.82382 20.1762 3.14111 20.4383 3.50191L21.6518 2.62024C21.2972 2.13209 20.8679 1.70281 20.3798 1.34815L19.4981 2.56168ZM11 0.25C9.14184 0.25 7.68798 0.248971 6.53648 0.373728C5.37094 0.500006 4.42656 0.762324 3.62023 1.34815L4.50191 2.56168C5.00992 2.19259 5.66013 1.97745 6.69804 1.865C7.74999 1.75103 9.10843 1.75 11 1.75V0.25ZM3.62023 1.34815C3.13209 1.70281 2.70281 2.13209 2.34815 2.62023L3.56168 3.50191C3.82382 3.14111 4.14111 2.82382 4.50191 2.56168L3.62023 1.34815ZM1 17.75H7V16.25H1V17.75ZM1 14.75H4V13.25H1V14.75ZM2.75 10C2.75 8.36482 2.75049 7.12493 2.8255 6.13204C2.90037 5.14093 3.04588 4.46709 3.29668 3.9466L1.94538 3.29546C1.57515 4.06379 1.41014 4.95506 1.32976 6.01904C1.24951 7.08125 1.25 8.38643 1.25 10H2.75ZM3.29668 3.9466C3.37348 3.78722 3.46113 3.64031 3.56168 3.50191L2.34815 2.62023C2.19354 2.83304 2.06012 3.05734 1.94538 3.29546L3.29668 3.9466ZM3.53033 3.46967L3.15136 3.0907L2.0907 4.15136L2.46967 4.53033L3.53033 3.46967ZM22.75 10C22.75 8.38643 22.7505 7.08125 22.6702 6.01904C22.5899 4.95506 22.4248 4.06379 22.0546 3.29546L20.7033 3.9466C20.9541 4.46709 21.0996 5.14093 21.1745 6.13204C21.2495 7.12493 21.25 8.36482 21.25 10H22.75ZM22.0546 3.29546C21.9399 3.05734 21.8065 2.83304 21.6518 2.62024L20.4383 3.50191C20.5389 3.64031 20.6265 3.78722 20.7033 3.9466L22.0546 3.29546ZM21.5303 4.53033L21.9093 4.15136L20.8486 3.0907L20.4697 3.46967L21.5303 4.53033Z" fill="#434B5B"/>
</svg>
