<svg width="24" height="25" viewBox="0 0 24 25" fill="none" xmlns="http://www.w3.org/2000/svg">
<path d="M7.47204 18.0327C7.76624 18.3243 8.24111 18.3222 8.53269 18.028C8.82427 17.7338 8.82216 17.2589 8.52796 16.9673L6.76499 15.22C6.0495 14.5109 5.55869 14.0228 5.22659 13.6093C5.11867 13.4749 5.03446 13.3566 4.96908 13.25L20 13.25C20.4142 13.25 20.75 12.9142 20.75 12.5C20.75 12.0858 20.4142 11.75 20 11.75L4.96908 11.75C5.03446 11.6434 5.11867 11.5251 5.22659 11.3907C5.55869 10.9772 6.0495 10.4891 6.76499 9.78L8.52796 8.03269C8.82216 7.74111 8.82427 7.26624 8.53269 6.97204C8.24111 6.67784 7.76624 6.67573 7.47204 6.96731L5.6773 8.7461C5.00133 9.41605 4.44886 9.96359 4.05706 10.4515C3.64963 10.9588 3.35469 11.4737 3.27591 12.0918C3.25864 12.2274 3.25 12.3637 3.25 12.5C3.25 12.6363 3.25864 12.7726 3.27591 12.9082C3.35469 13.5263 3.64963 14.0412 4.05706 14.5485C4.44886 15.0364 5.00134 15.584 5.67732 16.2539L7.47204 18.0327Z" fill="#7C828D"/>
</svg>
