<svg width="28" height="28" viewBox="0 0 28 28" fill="none" xmlns="http://www.w3.org/2000/svg">
<path d="M7 0C6.0375 0 5.25 0.7875 5.25 1.75V26.25C5.25 27.2125 6.0375 28 7 28H24.5C25.4625 28 26.25 27.2125 26.25 26.25V7L19.25 0H7Z" fill="#E2E5E7"/>
<path d="M21 7H26.25L19.25 0V5.25C19.25 6.2125 20.0375 7 21 7Z" fill="#B0B7BD"/>
<path d="M26.25 12.25L21 7H26.25V12.25Z" fill="#CAD1D8"/>
<path d="M22.75 22.75C22.75 23.2312 22.3563 23.625 21.875 23.625H2.625C2.14375 23.625 1.75 23.2312 1.75 22.75V14C1.75 13.5187 2.14375 13.125 2.625 13.125H21.875C22.3563 13.125 22.75 13.5187 22.75 14V22.75Z" fill="#009846"/>
<path d="M4.435 20.391V18.809H6.892V18.214H4.435V16.709H7.193V16.1H3.735V21H7.291V20.391H4.435ZM11.3734 21L9.89642 19.103L11.2964 17.29H10.5614L9.54642 18.627L8.52442 17.29H7.77542L9.16842 19.103L7.70542 21H8.45442L9.53942 19.579L10.6104 21H11.3734ZM13.6007 21.042C14.2657 21.042 14.8187 20.762 15.1127 20.244L14.6017 19.922C14.3637 20.286 13.9997 20.454 13.5937 20.454C12.8657 20.454 12.3197 19.95 12.3197 19.145C12.3197 18.354 12.8657 17.843 13.5937 17.843C13.9997 17.843 14.3637 18.011 14.6017 18.375L15.1127 18.046C14.8187 17.528 14.2657 17.255 13.6007 17.255C12.4597 17.255 11.6407 18.039 11.6407 19.145C11.6407 20.251 12.4597 21.042 13.6007 21.042ZM19.281 19.166C19.281 18.025 18.518 17.255 17.447 17.255C16.376 17.255 15.585 18.046 15.585 19.145C15.585 20.251 16.383 21.042 17.58 21.042C18.196 21.042 18.707 20.832 19.043 20.44L18.672 20.006C18.399 20.307 18.035 20.454 17.601 20.454C16.866 20.454 16.341 20.02 16.257 19.369H19.267C19.274 19.306 19.281 19.222 19.281 19.166ZM17.447 17.822C18.098 17.822 18.567 18.263 18.637 18.886H16.257C16.327 18.256 16.803 17.822 17.447 17.822ZM20.2141 21H20.8861V15.806H20.2141V21Z" fill="white"/>
<path d="M21.875 23.625H5.25V24.5H21.875C22.3563 24.5 22.75 24.1063 22.75 23.625V22.75C22.75 23.2313 22.3563 23.625 21.875 23.625Z" fill="#CAD1D8"/>
</svg>
