<svg width="50" height="50" viewBox="0 0 50 50" fill="none" xmlns="http://www.w3.org/2000/svg">
<g clip-path="url(#clip0_374_1663)">
<path fill-rule="evenodd" clip-rule="evenodd" d="M30.7236 3.63989L31.5637 6.77605L29.5756 7.92405L28.4273 5.93591L30.7237 3.63989H30.7236ZM19.2766 3.63989L21.5726 5.93628L20.4246 7.92415L18.4362 6.77642L19.2766 3.63989ZM9.36312 9.36284L12.4997 10.2035V12.4999H10.2033L9.36312 9.36284ZM3.64017 19.2763L6.77633 18.4362L7.92434 20.4244L5.93619 21.5726L3.64017 19.2763V19.2763ZM3.63989 30.7233L5.93628 28.4273L7.92471 29.5756L6.7767 31.5637L3.63989 30.7233ZM9.36322 40.6368L10.2036 37.5003H12.4997L12.4999 39.7966L9.36312 40.6368H9.36322ZM19.2767 46.3597L18.4363 43.2236L20.4247 42.0756L21.573 44.0637L19.2766 46.3597H19.2767ZM30.7237 46.36L28.4276 44.0643L29.5759 42.0752L31.5641 43.2232L30.7237 46.36ZM40.6369 40.6364L37.5007 39.7963V37.4999H39.7965L40.6369 40.6364ZM42.0759 29.5749L44.0641 28.4272L46.3601 30.7232L43.2239 31.5633L42.0759 29.5749ZM40.6369 9.36312L39.7965 12.4993H37.5001V10.2035L40.6369 9.36312ZM46.3602 19.2763L44.0642 21.5724L42.0758 20.4241L43.2238 18.4359L46.3603 19.2763H46.3602Z" fill="#009846"/>
<path fill-rule="evenodd" clip-rule="evenodd" d="M25 21.7079L28.8938 14.9636L25 12.7157L21.106 14.9636L25 21.7079ZM27.8506 23.3539H35.6377L35.6383 18.8577L31.7442 16.6097L27.8505 23.354L27.8506 23.3539ZM22.1489 23.3539H14.3615L14.3612 18.8577L18.2552 16.6097L22.149 23.354L22.1489 23.3539ZM25 28.2918L21.1063 35.0361L25 37.284L28.8941 35.0361L25 28.2918ZM22.1498 26.6458H14.3623L14.3621 31.142L18.2561 33.39L22.1499 26.6457L22.1498 26.6458ZM27.8514 26.6458H35.6388L35.6391 31.142L31.7451 33.39L27.8513 26.6457L27.8514 26.6458Z" fill="#274F9B"/>
<path fill-rule="evenodd" clip-rule="evenodd" d="M46.6509 12.5L42.0756 20.4242L37.5 17.7827L37.5005 12.4995L46.6508 12.5H46.6509ZM37.5 3.34919V12.4995L32.2171 12.5L29.5756 7.92414L37.5 3.34919ZM39.4341 25L42.0759 20.4244L50.0001 25L42.0759 29.575L39.4341 25ZM46.6509 37.5001H37.5006L37.5 32.2168L42.0759 29.5754L46.6509 37.5001ZM37.5 46.6506L29.5759 42.0753L32.2174 37.5L37.5006 37.5002L37.5 46.6505V46.6506ZM25 50.0001L20.4251 42.0757L25 39.4338L29.5756 42.0757L25 50.0001ZM12.5 46.6506V37.5003L17.7833 37.5001L20.4247 42.0757L12.5 46.6506ZM3.34947 37.5001L7.92479 29.5756L12.5001 32.2171L12.4998 37.5003L3.34957 37.5001H3.34947ZM0 25L7.92442 20.4247L10.5662 25L7.92442 29.5754L0 25ZM3.34947 12.5H12.4997L12.5 17.783L7.92442 20.4244L3.34947 12.5ZM12.5 3.34919L20.4244 7.92451L17.783 12.5001L12.4997 12.4995L12.5 3.34929V3.34919ZM25 0L29.5753 7.92414L25 10.566L20.4247 7.92414L25 0V0Z" fill="#FFD500"/>
</g>
<defs>
<clipPath id="clip0_374_1663">
<rect width="50" height="50" fill="white"/>
</clipPath>
</defs>
</svg>
