<svg width="23" height="24" viewBox="0 0 23 24" fill="none" xmlns="http://www.w3.org/2000/svg">
<path d="M12.2191 3.10064C12.2191 2.72289 11.8973 2.41667 11.5004 2.41667C11.1034 2.41667 10.7816 2.72289 10.7816 3.10064V13.7902C10.4724 13.4916 10.1048 13.052 9.56982 12.41L8.23022 10.8022C7.98359 10.5062 7.53151 10.4565 7.22047 10.6912C6.90942 10.9259 6.8572 11.3561 7.10382 11.6521L8.47064 13.2926C8.98161 13.9058 9.40325 14.4119 9.78064 14.7724C10.1679 15.1424 10.5978 15.4491 11.147 15.5323C11.2641 15.5501 11.3821 15.559 11.5004 15.559C11.6186 15.559 11.7366 15.5501 11.8537 15.5323C12.403 15.4491 12.8328 15.1424 13.2201 14.7724C13.5975 14.4119 14.0191 13.9058 14.5301 13.2926L15.8969 11.6521C16.1435 11.3561 16.0913 10.9259 15.7802 10.6912C15.4692 10.4565 15.0171 10.5062 14.7705 10.8022L13.4309 12.41C12.8959 13.052 12.5283 13.4916 12.2191 13.7902V3.10064Z" fill="#FAFAFA"/>
<path d="M2.875 19.6666L20.125 19.6666" stroke="white" stroke-width="1.4375" stroke-linecap="round"/>
</svg>
