<svg width="9" height="4" viewBox="0 0 9 4" fill="none" xmlns="http://www.w3.org/2000/svg">
<path d="M0.914544 0.154426C0.706648 -0.0502326 0.368072 -0.0517066 0.158313 0.151134C-0.0514463 0.353975 -0.0529568 0.684319 0.154939 0.888978L1.4232 2.13749C1.90086 2.60773 2.29125 2.99206 2.6391 3.26462C3.00082 3.54805 3.36796 3.75322 3.80867 3.80803C4.00191 3.83206 4.19746 3.83206 4.3907 3.80803C4.83141 3.75322 5.19855 3.54805 5.56027 3.26462C5.90812 2.99206 6.29851 2.60773 6.77617 2.1375L8.04443 0.888978C8.25233 0.684319 8.25082 0.353975 8.04106 0.151134C7.8313 -0.0517063 7.49272 -0.0502322 7.28483 0.154427L6.03902 1.38084C5.53341 1.87857 5.18544 2.22 4.8906 2.45103C4.6042 2.67544 4.42023 2.75243 4.25548 2.77292C4.15202 2.78579 4.04735 2.78579 3.94389 2.77292C3.77914 2.75243 3.59518 2.67544 3.30877 2.45103C3.01393 2.22 2.66596 1.87857 2.16036 1.38084L0.914544 0.154426Z" fill="#434B5B"/>
</svg>
