<svg width="19" height="20" viewBox="0 0 19 20" fill="none" xmlns="http://www.w3.org/2000/svg">
<path d="M6.53125 11.5833C6.53125 11.2554 6.79708 10.9896 7.125 10.9896H11.875C12.2029 10.9896 12.4688 11.2554 12.4688 11.5833C12.4688 11.9112 12.2029 12.1771 11.875 12.1771H7.125C6.79708 12.1771 6.53125 11.9112 6.53125 11.5833Z" fill="#8E939D"/>
<path fill-rule="evenodd" clip-rule="evenodd" d="M7.125 1.48956C7.45292 1.48956 7.71875 1.75539 7.71875 2.08331V3.08129C8.24856 3.0729 8.83725 3.0729 9.49125 3.0729H9.50875C10.1628 3.0729 10.7514 3.0729 11.2812 3.08129V2.08331C11.2812 1.75539 11.5471 1.48956 11.875 1.48956C12.2029 1.48956 12.4688 1.75539 12.4688 2.08331V3.12323C13.6657 3.19827 14.5852 3.39221 15.3423 3.94227C15.7288 4.22304 16.0686 4.56288 16.3494 4.94933C16.9842 5.82306 17.1447 6.91317 17.1955 8.39632C17.2188 9.07494 17.2188 9.86454 17.2188 10.7829V10.8004C17.2188 11.7188 17.2188 12.5084 17.1955 13.187C17.1447 14.6701 16.9842 15.7602 16.3494 16.634C16.0686 17.0204 15.7288 17.3603 15.3423 17.641C14.4686 18.2758 13.3785 18.4363 11.8953 18.4871C11.2167 18.5104 10.427 18.5104 9.50854 18.5104H9.46416C8.01024 18.5104 6.87056 18.5104 5.96638 18.4124C5.04366 18.3125 4.29603 18.1048 3.65769 17.641C3.27124 17.3603 2.93139 17.0204 2.65062 16.634C2.18684 15.9956 1.97917 15.248 1.8792 14.3253C1.78124 13.4211 1.78124 12.2814 1.78125 10.8275L1.78125 10.7829C1.78125 9.86451 1.78125 9.07493 1.8045 8.39632C1.85531 6.91317 2.01582 5.82306 2.65062 4.94933C2.93139 4.56288 3.27124 4.22304 3.65769 3.94227C4.41477 3.39221 5.33432 3.19827 6.53125 3.12323V2.08331C6.53125 1.75539 6.79708 1.48956 7.125 1.48956ZM6.53125 4.31364C5.45296 4.38779 4.83057 4.55795 4.35568 4.90297C4.07005 5.1105 3.81885 5.36169 3.61133 5.64733C3.2663 6.12222 3.09615 6.7446 3.02199 7.8229H15.978C15.9039 6.7446 15.7337 6.12222 15.3887 5.64733C15.1811 5.36169 14.93 5.1105 14.6443 4.90297C14.1694 4.55795 13.547 4.38779 12.4688 4.31364V4.45831C12.4688 4.78623 12.2029 5.05206 11.875 5.05206C11.5471 5.05206 11.2812 4.78623 11.2812 4.45831V4.26894C10.7591 4.26044 10.171 4.2604 9.5 4.2604C8.82901 4.2604 8.24092 4.26044 7.71875 4.26894V4.45831C7.71875 4.78623 7.45292 5.05206 7.125 5.05206C6.79708 5.05206 6.53125 4.78623 6.53125 4.45831V4.31364ZM16.0227 9.0104H2.97729C2.96879 9.53257 2.96875 10.1207 2.96875 10.7916C2.96875 12.2891 2.96957 13.3646 3.05979 14.1974C3.14882 15.019 3.31913 15.5338 3.61133 15.936C3.81885 16.2216 4.07005 16.4728 4.35568 16.6803C4.75785 16.9725 5.27261 17.1428 6.09429 17.2319C6.92708 17.3221 8.00251 17.3229 9.5 17.3229C10.1716 17.3229 10.7602 17.3229 11.2827 17.3143C11.2862 16.9386 11.2978 16.6619 11.3373 16.4129C11.6458 14.4651 13.1734 12.9374 15.1212 12.6289C15.3703 12.5895 15.6469 12.5778 16.0227 12.5743C16.0312 12.0518 16.0312 11.4633 16.0312 10.7916C16.0312 10.1207 16.0312 9.53257 16.0227 9.0104ZM15.9779 13.7626C15.6573 13.7663 15.4693 13.7761 15.307 13.8018C13.8673 14.0298 12.7382 15.159 12.5102 16.5986C12.4845 16.761 12.4747 16.9489 12.471 17.2695C13.5479 17.1953 14.1698 17.0251 14.6443 16.6803C14.93 16.4728 15.1811 16.2216 15.3887 15.936C15.7335 15.4614 15.9036 14.8395 15.9779 13.7626Z" fill="#8E939D"/>
</svg>
