<svg width="22" height="22" viewBox="0 0 22 22" fill="none" xmlns="http://www.w3.org/2000/svg">
<path d="M8.29171 21.8333H9.37504C9.37504 21.8333 9.06492 21.8333 9.91671 21.8333C9.91671 21.8333 10.591 21.8333 11 21.8333C11.4091 21.8333 11.5417 21.8333 12.0834 21.8333C12.625 21.8333 12.625 21.8333 13.1667 21.8333C13.1667 21.8333 13.7084 21.8333 14.25 21.8333C14.7917 21.8333 14.7917 21.8333 14.7917 21.8333C15.3334 21.8333 15.0691 21.8333 15.4232 21.8333H17.5475C18.5396 21.8359 19.492 21.4464 20.1945 20.7509C20.8969 20.0553 21.2917 19.1109 21.2917 18.126V8.68909C21.2917 7.89349 20.9364 7.13882 20.3217 6.62838L13.0952 0.898848C11.8382 -0.105735 10.0371 -0.0732996 8.81755 0.975884L1.75597 6.62838C1.11218 7.12377 0.727389 7.88068 0.708374 8.68909V18.1163C0.708374 20.1692 2.3847 21.8333 4.45256 21.8333H6.52835C7.26387 21.8333 7.20837 21.8333 7.75004 21.8333H8.29171Z" fill="#E78366"/>
</svg>
