<svg width="14" height="16" viewBox="0 0 14 16" fill="none" xmlns="http://www.w3.org/2000/svg">
<path fill-rule="evenodd" clip-rule="evenodd" d="M10.7754 1.21178C10.064 0.801063 9.47085 0.458572 8.96339 0.250007C8.42777 0.0298651 7.89415 -0.0822212 7.32534 0.0701897C6.75654 0.222601 6.35045 0.586481 5.99666 1.04494C5.66147 1.47929 5.31902 2.07248 4.90834 2.78385L1.36522 8.92061C1.12701 9.33242 0.932426 9.66881 0.834075 10.03C0.820024 10.0816 0.807938 10.1338 0.797969 10.1867C0.718219 10.6099 0.783297 11.0349 0.865603 11.5723L0.887781 11.7176C1.03971 12.7153 1.16494 13.5377 1.35381 14.1614C1.55135 14.8136 1.855 15.3781 2.45223 15.7229C3.04946 16.0677 3.69019 16.0484 4.3538 15.8934C4.98833 15.7452 5.76315 15.4424 6.70317 15.0751L6.84006 15.0217C7.34665 14.8243 7.74721 14.6681 8.07391 14.3874C8.40061 14.1067 8.61525 13.7342 8.88672 13.2631L12.4297 7.12634C12.8405 6.41501 13.183 5.82183 13.3915 5.31437C13.6117 4.77875 13.7238 4.24513 13.5713 3.67632C13.4189 3.10752 13.0551 2.70143 12.5966 2.34764C12.1622 2.01245 11.5691 1.67 10.8577 1.25932L10.7754 1.21178ZM10.8756 7.07564L5.72933 4.10447L2.5996 9.52533C2.25864 10.1159 2.17661 10.2758 2.14557 10.4406C2.11453 10.6053 2.13273 10.7841 2.23541 11.4583C2.39745 12.5222 2.50938 13.2459 2.66625 13.7639C2.81779 14.2642 2.97407 14.4408 3.13789 14.5353C3.30171 14.6299 3.53272 14.677 4.04182 14.558C4.56884 14.4349 5.25154 14.17 6.25394 13.7784C6.88911 13.5302 7.05307 13.4566 7.18022 13.3473C7.30738 13.2381 7.40487 13.0871 7.74583 12.4965L10.8756 7.07564ZM11.5598 5.88722C11.8167 5.43445 12.002 5.08785 12.1232 4.79308C12.285 4.39936 12.2904 4.19399 12.2468 4.03125C12.2032 3.8685 12.0958 3.69333 11.7588 3.43328C11.4061 3.16106 10.8941 2.8638 10.1309 2.42315C9.36763 1.98249 8.85421 1.68775 8.44209 1.51837C8.04838 1.35655 7.84301 1.35117 7.68026 1.39478C7.51752 1.43838 7.34235 1.54573 7.08229 1.88273C6.88759 2.13504 6.68007 2.4688 6.41643 2.91771L11.5598 5.88722Z" fill="#4E76C3"/>
</svg>
