<svg width="28" height="28" viewBox="0 0 28 28" fill="none" xmlns="http://www.w3.org/2000/svg">
<path d="M26.25 7.875H1.75C0.783562 7.875 0 8.65856 0 9.625V21C0 21.9664 0.783562 22.75 1.75 22.75H26.25C27.2164 22.75 28 21.9664 28 21V9.625C28 8.65856 27.2164 7.875 26.25 7.875Z" fill="#576D7E"/>
<path d="M1.75 7.875H25.8125C25.8125 8.35844 25.4209 8.75 24.9375 8.75H2.625C2.14156 8.75 1.75 8.35844 1.75 7.875Z" fill="#748B9E"/>
<path d="M3.9375 11.375C4.17912 11.375 4.375 11.1791 4.375 10.9375C4.375 10.6959 4.17912 10.5 3.9375 10.5C3.69588 10.5 3.5 10.6959 3.5 10.9375C3.5 11.1791 3.69588 11.375 3.9375 11.375Z" fill="#84BD5A"/>
<path d="M2.1875 11.375C2.42912 11.375 2.625 11.1791 2.625 10.9375C2.625 10.6959 2.42912 10.5 2.1875 10.5C1.94588 10.5 1.75 10.6959 1.75 10.9375C1.75 11.1791 1.94588 11.375 2.1875 11.375Z" fill="#84BD5A"/>
<path d="M4.375 15.3125H23.625C23.8665 15.3125 24.0625 15.5085 24.0625 15.75V17.0625C24.0625 17.304 23.8665 17.5 23.625 17.5H4.375C4.1335 17.5 3.9375 17.304 3.9375 17.0625V15.75C3.9375 15.5085 4.1335 15.3125 4.375 15.3125Z" fill="#123247"/>
<path d="M24.0625 7.87505H3.9375L4.6725 4.20442C4.75519 3.7888 5.12356 3.49174 5.5475 3.50005H22.47C22.8939 3.49174 23.2623 3.7888 23.345 4.20442L24.0625 7.87505Z" fill="#35495C"/>
<path d="M22.3125 1.75C22.3125 1.26656 21.9209 0.875 21.4375 0.875H6.5625C6.07906 0.875 5.6875 1.26656 5.6875 1.75V7.875H22.3125V1.75Z" fill="#E2E7F0"/>
<path d="M22.3125 2.625V7.875H21.4375V3.5C21.4375 3.01656 21.8291 2.625 22.3125 2.625Z" fill="#C9D5E3"/>
<path d="M4.8125 17.5H5.6875V18.375C5.20406 18.375 4.8125 17.9834 4.8125 17.5Z" fill="#3F556B"/>
<path d="M5.6875 21.875H2.625C2.14156 21.875 1.75 22.2666 1.75 22.75H5.6875V21.875Z" fill="#3F556B"/>
<path d="M27.125 10.5V21C27.125 21.4834 26.7334 21.875 26.25 21.875H23.625C23.3835 21.875 23.1875 21.679 23.1875 21.4375V17.5H22.3125V22.75H26.25C27.2164 22.75 28 21.9664 28 21V9.625C27.5166 9.625 27.125 10.0166 27.125 10.5Z" fill="#3F556B"/>
<path d="M5.6875 26.25C5.6875 26.7334 6.07906 27.125 6.5625 27.125H21.4375C21.9209 27.125 22.3125 26.7334 22.3125 26.25V17.5H5.6875V26.25Z" fill="#E2E7F0"/>
<path d="M7.875 19.6875H20.125C20.3665 19.6875 20.5625 19.8835 20.5625 20.125C20.5625 20.3665 20.3665 20.5625 20.125 20.5625H7.875C7.6335 20.5625 7.4375 20.3665 7.4375 20.125C7.4375 19.8835 7.6335 19.6875 7.875 19.6875Z" fill="#9DACBA"/>
<path d="M7.875 24.0625H14.875C15.1165 24.0625 15.3125 24.2585 15.3125 24.5C15.3125 24.7415 15.1165 24.9375 14.875 24.9375H7.875C7.6335 24.9375 7.4375 24.7415 7.4375 24.5C7.4375 24.2585 7.6335 24.0625 7.875 24.0625Z" fill="#9DACBA"/>
<path d="M7.875 21.875H20.125C20.3665 21.875 20.5625 22.071 20.5625 22.3125C20.5625 22.554 20.3665 22.75 20.125 22.75H7.875C7.6335 22.75 7.4375 22.554 7.4375 22.3125C7.4375 22.071 7.6335 21.875 7.875 21.875Z" fill="#9DACBA"/>
<path d="M21.875 17.5H5.6875C5.6875 17.9834 6.07906 18.375 6.5625 18.375H21C21.2415 18.375 21.4375 18.571 21.4375 18.8125V25.8125C21.4375 26.054 21.2415 26.25 21 26.25H7.4375C6.95406 26.25 6.5625 26.6416 6.5625 27.125H21.4375C21.9209 27.125 22.3125 26.7334 22.3125 26.25V17.5H21.875Z" fill="#C9D5E3"/>
<path d="M5.6875 10.5H8.3125C8.554 10.5 8.75 10.696 8.75 10.9375C8.75 11.179 8.554 11.375 8.3125 11.375H5.6875C5.446 11.375 5.25 11.179 5.25 10.9375C5.25 10.696 5.446 10.5 5.6875 10.5Z" fill="#35495C"/>
</svg>
