<svg width="13" height="13" viewBox="0 0 13 13" fill="none" xmlns="http://www.w3.org/2000/svg">
<path fill-rule="evenodd" clip-rule="evenodd" d="M5.60528 11.8832C5.60528 12.302 5.94478 12.6415 6.36358 12.6415C6.78238 12.6415 7.12188 12.302 7.12188 11.8832L7.12188 7.12212L11.8834 7.12212C12.3022 7.12212 12.6417 6.78261 12.6417 6.36382C12.6417 5.94502 12.3022 5.60551 11.8834 5.60551H7.12188L7.12188 1.30086C7.12188 0.882061 6.78238 0.542558 6.36358 0.542558C5.94478 0.542558 5.60528 0.882061 5.60528 1.30086L5.60528 5.60551L1.30108 5.60551C0.882284 5.60551 0.542781 5.94502 0.542781 6.36382C0.542781 6.78261 0.882283 7.12212 1.30108 7.12212L5.60528 7.12212L5.60528 11.8832Z" fill="white"/>
<path fill-rule="evenodd" clip-rule="evenodd" d="M5.60528 11.8832C5.60528 12.302 5.94478 12.6415 6.36358 12.6415C6.78238 12.6415 7.12188 12.302 7.12188 11.8832L7.12188 7.12212L11.8834 7.12212C12.3022 7.12212 12.6417 6.78261 12.6417 6.36382C12.6417 5.94502 12.3022 5.60551 11.8834 5.60551H7.12188L7.12188 1.30086C7.12188 0.882061 6.78238 0.542558 6.36358 0.542558C5.94478 0.542558 5.60528 0.882061 5.60528 1.30086L5.60528 5.60551L1.30108 5.60551C0.882284 5.60551 0.542781 5.94502 0.542781 6.36382C0.542781 6.78261 0.882283 7.12212 1.30108 7.12212L5.60528 7.12212L5.60528 11.8832Z" fill="white"/>
</svg>
