<svg width="20" height="20" viewBox="0 0 20 20" fill="none" xmlns="http://www.w3.org/2000/svg">
<path d="M9.04733 4.99343C9.11391 4.95499 9.18157 4.92044 9.25006 4.88969L9.2501 8.91998C7.62302 8.20154 7.4706 5.90376 9.04733 4.99343Z" fill="#7C828D"/>
<path d="M10.7501 15.1103L10.7501 11.08C12.3772 11.7984 12.5296 14.0962 10.9529 15.0066C10.8863 15.045 10.8186 15.0796 10.7501 15.1103Z" fill="#7C828D"/>
<path fill-rule="evenodd" clip-rule="evenodd" d="M9.95475 0.25H10.0452C11.8818 0.249992 13.3214 0.249985 14.4635 0.373728C15.6291 0.500006 16.5734 0.762324 17.3798 1.34815C17.8679 1.70281 18.2972 2.13209 18.6518 2.62024C19.2377 3.42656 19.5 4.37094 19.6263 5.53648C19.75 6.67859 19.75 8.11816 19.75 9.95465V10.0453C19.75 11.8818 19.75 13.3214 19.6263 14.4635C19.5 15.6291 19.2377 16.5734 18.6518 17.3798C18.2972 17.8679 17.8679 18.2972 17.3798 18.6518C16.5734 19.2377 15.6291 19.5 14.4635 19.6263C13.3214 19.75 11.8818 19.75 10.0453 19.75H9.95473C8.11824 19.75 6.67859 19.75 5.53648 19.6263C4.37094 19.5 3.42656 19.2377 2.62024 18.6518C2.13209 18.2972 1.70281 17.8679 1.34815 17.3798C0.762324 16.5734 0.500006 15.6291 0.373728 14.4635C0.249985 13.3214 0.249992 11.8818 0.25 10.0452V9.95475C0.249992 8.11821 0.249985 6.67861 0.373728 5.53648C0.500006 4.37094 0.762324 3.42656 1.34815 2.62024C1.70281 2.13209 2.13209 1.70281 2.62024 1.34815C3.42656 0.762324 4.37094 0.500006 5.53648 0.373728C6.67861 0.249985 8.11821 0.249992 9.95475 0.25ZM10.7501 3C10.7501 2.58579 10.4143 2.25 10.0001 2.25C9.58584 2.25 9.25005 2.58579 9.25005 3V3.30807C8.92329 3.39005 8.60264 3.51813 8.29733 3.69439C5.57547 5.26586 5.92142 9.29891 8.87115 10.3839L9.2501 10.5233L9.25007 15.2195C8.71517 15.0686 8.23726 14.717 7.93805 14.1988L7.56248 13.5483C7.35538 13.1895 6.89668 13.0666 6.53796 13.2737C6.17924 13.4808 6.05634 13.9395 6.26344 14.2983L6.63901 14.9488C7.21748 15.9507 8.19271 16.5796 9.25006 16.7535L9.25006 17C9.25005 17.4142 9.58584 17.75 10 17.75C10.4143 17.75 10.7501 17.4142 10.7501 17L10.7501 16.692C11.0769 16.61 11.3975 16.4819 11.7029 16.3056C14.4247 14.7341 14.0788 10.7011 11.1291 9.61613L10.7501 9.47674L10.7501 4.78053C11.285 4.93138 11.7629 5.28298 12.0622 5.80125L12.4377 6.45175C12.6448 6.81047 13.1035 6.93337 13.4622 6.72626C13.821 6.51916 13.9439 6.06047 13.7368 5.70175L13.3612 5.05125C12.7827 4.04928 11.8074 3.42033 10.7501 3.2465V3Z" fill="#7C828D"/>
</svg>
