<svg width="24" height="25" viewBox="0 0 24 25" fill="none" xmlns="http://www.w3.org/2000/svg">
<path d="M16.528 6.96731C16.2338 6.67573 15.7589 6.67784 15.4673 6.97204C15.1757 7.26624 15.1778 7.74111 15.472 8.03269L17.235 9.78C17.9505 10.4891 18.4413 10.9772 18.7734 11.3907C18.8813 11.5251 18.9655 11.6434 19.0309 11.75L4 11.75C3.58579 11.75 3.25 12.0858 3.25 12.5C3.25 12.9142 3.58579 13.25 4 13.25L19.0309 13.25C18.9655 13.3566 18.8813 13.4749 18.7734 13.6093C18.4413 14.0228 17.9505 14.5109 17.235 15.22L15.472 16.9673C15.1778 17.2589 15.1757 17.7338 15.4673 18.028C15.7589 18.3222 16.2338 18.3243 16.528 18.0327L18.3227 16.2539C18.9987 15.584 19.5511 15.0364 19.9429 14.5485C20.3504 14.0412 20.6453 13.5263 20.7241 12.9082C20.7414 12.7726 20.75 12.6363 20.75 12.5C20.75 12.3637 20.7414 12.2274 20.7241 12.0918C20.6453 11.4737 20.3504 10.9588 19.9429 10.4515C19.5511 9.96358 18.9987 9.41604 18.3227 8.74609L16.528 6.96731Z" fill="#7C828D"/>
</svg>
