<svg width="32" height="32" viewBox="0 0 32 32" fill="none" xmlns="http://www.w3.org/2000/svg">
<path fill-rule="evenodd" clip-rule="evenodd" d="M30.1202 5.28306C31.0303 6.97291 31.0303 9.18504 31.0303 13.6093V17.8733C31.0303 18.3151 31.0303 18.536 31.021 18.7227C30.8174 22.792 27.3763 26.0474 23.075 26.2401C22.8777 26.2489 22.6172 26.2489 22.0963 26.2489L21.9626 26.2491C20.2587 26.2594 18.599 26.7626 17.2062 27.6911L17.1176 27.7507L12.7576 30.697C11.263 31.7071 9.2989 30.2484 9.98106 28.635C10.4643 27.4921 9.57459 26.2489 8.27347 26.2489H7.26852C3.78979 26.2489 0.969727 23.581 0.969727 20.2899V13.6093C0.969727 9.18504 0.969727 6.97291 1.87984 5.28306C2.6804 3.79663 3.95781 2.58812 5.529 1.83075C7.3152 0.969727 9.65346 0.969727 14.33 0.969727H17.6701C22.3466 0.969727 24.6849 0.969727 26.4711 1.83075C28.0422 2.58812 29.3197 3.79663 30.1202 5.28306ZM9.31989 9.26445C8.62814 9.26445 8.06737 9.79498 8.06737 10.4494C8.06737 11.1039 8.62814 11.6344 9.31989 11.6344H22.6802C23.3719 11.6344 23.9327 11.1039 23.9327 10.4494C23.9327 9.79498 23.3719 9.26445 22.6802 9.26445H9.31989ZM9.31989 16.3742C8.62814 16.3742 8.06737 16.9047 8.06737 17.5592C8.06737 18.2136 8.62814 18.7441 9.31989 18.7441H22.6802C23.3719 18.7441 23.9327 18.2136 23.9327 17.5592C23.9327 16.9047 23.3719 16.3742 22.6802 16.3742H9.31989Z" fill="#8AB0F8"/>
</svg>
