<svg width="20" height="20" viewBox="0 0 20 20" fill="none" xmlns="http://www.w3.org/2000/svg">
<path fill-rule="evenodd" clip-rule="evenodd" d="M6.11183 0.97505C5.05974 0.00831676 3.44259 0.00831676 2.3905 0.97505C2.34741 1.01464 2.30142 1.06065 2.24169 1.12039L1.34419 2.01788C0.441081 2.921 0.0619618 4.22292 0.339024 5.4697C1.91099 12.5436 7.43553 18.0681 14.5094 19.6401C15.7562 19.9171 17.0581 19.538 17.9612 18.6349L18.8586 17.7375C18.9184 17.6777 18.9644 17.6317 19.004 17.5886C19.9708 16.5365 19.9708 14.9193 19.004 13.8673C18.9644 13.8241 18.9184 13.7781 18.8586 13.7184L17.3894 12.2491C16.3693 11.229 14.8287 10.9372 13.5063 11.5137C12.7492 11.8437 11.8672 11.6767 11.2832 11.0927L8.88639 8.69589C8.30239 8.11188 8.13536 7.22994 8.46538 6.47283C9.04184 5.15037 8.75009 3.60984 7.72999 2.58974L6.26066 1.12041C6.20093 1.06066 6.15492 1.01464 6.11183 0.97505ZM3.40541 2.07957C3.88363 1.64014 4.6187 1.64014 5.09692 2.07957C5.11343 2.09474 5.13507 2.11613 5.21114 2.1922L6.66933 3.6504C7.25333 4.2344 7.42036 5.11635 7.09034 5.87345C6.51388 7.19592 6.80563 8.73644 7.82573 9.75655L10.2225 12.1534C11.2426 13.1735 12.7832 13.4652 14.1056 12.8887C14.8627 12.5587 15.7447 12.7258 16.3287 13.3098L17.7869 14.768C17.8629 14.844 17.8843 14.8657 17.8995 14.8822C18.3389 15.3604 18.3389 16.0955 17.8995 16.5737C17.8843 16.5902 17.8629 16.6118 17.7869 16.6879L16.9005 17.5742C16.3601 18.1147 15.5809 18.3416 14.8348 18.1758C8.32946 16.7302 3.24893 11.6496 1.8033 5.1443C1.6375 4.39816 1.86438 3.61902 2.40485 3.07855L3.2912 2.1922C3.36726 2.11614 3.3889 2.09474 3.40541 2.07957Z" fill="#434B5B"/>
</svg>
