<svg width="4" height="10" viewBox="0 0 4 10" fill="none" xmlns="http://www.w3.org/2000/svg">
<path d="M3.67162 8.09818C3.87628 8.30608 3.87776 8.64465 3.67492 8.85441C3.47207 9.06417 3.14173 9.06568 2.93707 8.85779L1.68856 7.58953C1.21832 7.11187 0.833991 6.72147 0.56143 6.37363C0.278002 6.01191 0.0728313 5.64476 0.0180237 5.20406C-0.0060079 5.01082 -0.00600786 4.81526 0.0180236 4.62203C0.0728313 4.18132 0.278002 3.81417 0.561431 3.45245C0.83399 3.10461 1.21831 2.71422 1.68855 2.23656L2.93707 0.968293C3.14173 0.760398 3.47207 0.761909 3.67492 0.971667C3.87776 1.18143 3.87628 1.52 3.67162 1.7279L2.44521 2.97371C1.94748 3.47932 1.60605 3.82728 1.37502 4.12213C1.15061 4.40853 1.07362 4.59249 1.05313 4.75725C1.04026 4.8607 1.04026 4.96538 1.05313 5.06883C1.07362 5.23359 1.15061 5.41755 1.37502 5.70395C1.60605 5.9988 1.94748 6.34676 2.44521 6.85237L3.67162 8.09818Z" fill="#434B5B"/>
</svg>
