<svg width="4" height="10" viewBox="0 0 4 10" fill="none" xmlns="http://www.w3.org/2000/svg">
<path d="M0.328376 8.09818C0.123718 8.30608 0.122244 8.64465 0.325084 8.85441C0.527925 9.06417 0.858269 9.06568 1.06293 8.85779L2.31144 7.58953C2.78168 7.11187 3.16601 6.72147 3.43857 6.37363C3.722 6.01191 3.92717 5.64476 3.98198 5.20406C4.00601 5.01082 4.00601 4.81526 3.98198 4.62203C3.92717 4.18132 3.722 3.81417 3.43857 3.45245C3.16601 3.10461 2.78169 2.71422 2.31145 2.23656L1.06293 0.968293C0.858269 0.760398 0.527925 0.761909 0.325085 0.971667C0.122244 1.18143 0.123718 1.52 0.328377 1.7279L1.55479 2.97371C2.05252 3.47932 2.39395 3.82728 2.62498 4.12213C2.84939 4.40853 2.92638 4.59249 2.94687 4.75725C2.95974 4.8607 2.95974 4.96538 2.94687 5.06883C2.92638 5.23359 2.84939 5.41755 2.62498 5.70395C2.39395 5.9988 2.05252 6.34676 1.55479 6.85237L0.328376 8.09818Z" fill="#434B5B"/>
</svg>
